<svg width="535" height="379" viewBox="0 0 535 379" fill="none" xmlns="http://www.w3.org/2000/svg">
<g clip-path="url(#clip0)">
<path d="M49.5368 338.978C76.7849 338.978 98.8739 337.419 98.8739 335.497C98.8739 333.575 76.7849 332.017 49.5368 332.017C22.2886 332.017 0.199646 333.575 0.199646 335.497C0.199646 337.419 22.2886 338.978 49.5368 338.978Z" fill="#D0CDE1"/>
<path d="M199.289 379C270.135 379 327.566 376.273 327.566 372.91C327.566 369.546 270.135 366.819 199.289 366.819C128.444 366.819 71.0129 369.546 71.0129 372.91C71.0129 376.273 128.444 379 199.289 379Z" fill="#D0CDE1"/>
<path d="M266.04 126.685L268.361 122.625L256.753 120.305L255.592 126.105L257.333 130.746L266.04 126.685Z" fill="#0A84FF"/>
<path opacity="0.2" d="M266.04 126.685L268.361 122.625L256.753 120.305L255.592 126.105L257.333 130.746L266.04 126.685Z" fill="black"/>
<path d="M259.365 124.075C267.699 124.075 274.456 117.323 274.456 108.994C274.456 100.665 267.699 93.9131 259.365 93.9131C251.03 93.9131 244.273 100.665 244.273 108.994C244.273 117.323 251.03 124.075 259.365 124.075Z" fill="#FFB8B8"/>
<path d="M246.595 108.994L234.406 129.295L252.399 139.736L261.686 118.275L246.595 108.994Z" fill="#FFB8B8"/>
<path d="M245.434 132.775L229.762 126.395C229.762 126.395 205.964 130.455 203.643 137.996C201.321 145.536 201.321 206.44 201.321 206.44C201.321 206.44 195.517 221.521 203.643 222.101C203.643 222.101 201.321 225.581 203.643 226.161C205.964 226.741 229.762 226.161 239.049 229.061C248.336 231.961 266.91 234.281 266.91 231.381V226.161C266.91 226.161 270.973 222.101 268.652 215.14C266.33 208.18 263.428 193.099 263.428 193.099C263.428 193.099 280.841 154.817 279.099 150.176C277.358 145.536 256.098 131.188 256.098 131.188L245.434 132.775Z" fill="#0A84FF"/>
<path d="M209.447 206.44L210.028 211.08L218.154 201.22H215.251L209.447 206.44Z" fill="#FFB8B8"/>
<path d="M245.434 132.775L228.601 128.715C228.601 128.715 225.119 125.815 225.119 122.335C225.119 118.855 230.343 113.634 233.825 110.154C234.129 109.843 234.492 109.597 234.893 109.431C235.294 109.264 235.724 109.181 236.159 109.185C239.607 109.156 243.786 113.675 243.786 113.675L239.148 121.407L238.939 121.749L245.434 132.775Z" fill="#0A84FF"/>
<path d="M258.409 125.849L268.361 122.625C268.361 122.625 271.554 135.095 268.071 135.676C264.589 136.256 245.434 134.515 245.434 134.515L258.409 125.849Z" fill="#0A84FF"/>
<path d="M204.804 223.261L197.258 266.183C197.258 266.183 194.356 271.404 195.517 273.724C196.677 276.044 197.258 276.044 195.517 277.204C193.775 278.364 191.454 277.204 192.034 280.104C192.382 281.824 192.576 283.571 192.614 285.324L176.362 341.008C176.362 341.008 165.914 345.648 173.46 348.548C181.006 351.448 188.551 353.769 190.293 350.868C192.034 347.968 190.293 344.488 190.293 344.488L216.993 280.684C216.993 280.684 221.056 274.884 221.056 271.404C221.056 267.923 234.406 242.982 234.406 242.982C234.406 242.982 234.986 267.923 235.567 269.664C236.147 271.404 234.406 274.884 234.406 277.204C234.406 279.524 233.245 279.524 234.406 280.684C235.567 281.844 235.567 295.185 235.567 295.185C235.567 295.185 228.601 346.808 232.665 347.388C236.728 347.968 248.336 346.808 248.336 344.488C248.336 342.168 246.595 341.588 246.595 341.588L254.141 297.505C254.141 297.505 253.56 294.605 254.721 292.285C255.882 289.965 255.882 289.965 255.882 288.805C255.882 287.645 255.302 287.065 255.882 286.485C256.261 285.984 256.465 285.372 256.462 284.744C256.462 284.744 255.302 281.264 255.882 280.684C256.462 280.104 269.232 236.602 265.169 231.381C261.106 226.161 204.804 223.261 204.804 223.261Z" fill="#2F2E41"/>
<path d="M233.245 345.648L229.182 354.929C229.182 354.929 219.895 365.369 226.86 367.689C233.825 370.009 236.147 369.429 236.147 369.429C236.147 369.429 239.049 370.009 239.049 371.17C239.049 372.33 262.267 381.03 264.008 373.49C265.749 365.949 246.015 352.028 246.015 352.028V345.068L233.245 345.648Z" fill="#2F2E41"/>
<path d="M188.473 349.944L189.352 360.036C189.352 360.036 194.809 372.896 187.467 372.868C180.125 372.84 178.111 371.548 178.111 371.548C178.111 371.548 175.176 371.17 174.804 372.269C174.433 373.368 149.65 374.19 150.414 366.489C151.178 358.788 174.332 351.907 174.332 351.907L176.56 345.312L188.473 349.944Z" fill="#2F2E41"/>
<path d="M244.666 113.122C245.598 113.06 246.219 112.044 246.477 111.078C246.735 110.112 246.801 109.054 247.328 108.224C248.771 105.949 252.523 106.868 254.046 104.655C254.983 103.294 254.787 101.078 256.14 100.212C256.994 99.6647 258.083 99.9464 259.024 100.29C262.672 101.632 266.041 103.637 268.959 106.203L270.171 105.217L271.685 108.241C272.272 107.534 273.404 108.082 273.896 108.868C274.389 109.655 274.628 110.66 275.33 111.232C276.45 112.145 278.199 111.372 278.877 110.048C279.555 108.725 279.443 107.106 279.208 105.616C278.622 101.883 277.374 98.284 275.523 94.989L276.908 94.1585L275.117 93.9029L275.803 92.3491L273.927 92.3273L274.667 90.9991C272.146 91.8638 269.54 90.28 267.132 89.0992C263.103 87.1241 258.571 86.1762 254.197 86.91C251.956 87.2736 249.815 88.0997 247.911 89.3357C246.007 90.5717 244.381 92.1905 243.138 94.0889C241.23 97.0854 240.129 101.436 241.082 105.025C241.949 108.287 245.733 108.794 244.666 113.122Z" fill="#2F2E41"/>
<path d="M207.125 135.676C207.125 135.676 203.643 135.096 201.321 139.736C198.999 144.376 181.586 181.498 190.293 193.099C198.999 204.7 207.125 208.18 207.125 208.18L208.867 208.76L217.573 199.479L214.671 195.419C214.671 195.419 214.671 191.359 212.349 190.779C210.027 190.199 210.027 191.939 209.447 189.619C208.867 187.299 211.769 189.039 208.867 186.719C205.964 184.398 208.286 183.238 208.286 183.238L207.125 135.676Z" fill="#0A84FF"/>
<path d="M268.652 213.11L268.071 217.751L259.945 207.89H262.847L268.652 213.11Z" fill="#FFB8B8"/>
<path d="M267.781 148.146C267.781 148.146 275.907 144.086 278.229 148.726C280.551 153.367 296.513 188.169 287.806 199.769C279.099 211.37 270.973 214.85 270.973 214.85L269.232 215.43L260.525 206.15L263.428 202.09C263.428 202.09 263.428 198.029 265.749 197.449C268.071 196.869 268.071 198.609 268.652 196.289C269.232 193.969 266.33 195.709 269.232 193.389C272.134 191.069 269.812 189.909 269.812 189.909L267.781 148.146Z" fill="#0A84FF"/>
<path opacity="0.2" d="M212.639 158.587L206.255 184.109L213.8 193.389L210.318 181.789L212.639 158.587Z" fill="black"/>
<path opacity="0.2" d="M243.786 113.675L239.148 121.407C236.234 120.397 235.99 113.64 236.159 109.185C239.607 109.156 243.786 113.675 243.786 113.675Z" fill="black"/>
<path d="M145.172 357.113C145.273 367.434 139.168 371.097 131.594 371.171C131.418 371.173 131.243 371.173 131.069 371.171C130.718 371.166 130.37 371.154 130.026 371.133C123.186 370.716 117.838 366.979 117.745 357.38C117.648 347.447 130.23 334.787 131.174 333.851L131.175 333.85C131.211 333.815 131.229 333.797 131.229 333.797C131.229 333.797 145.071 346.793 145.172 357.113Z" fill="#D0CDE1"/>
<path d="M125.443 307.327C125.514 314.613 121.205 317.198 115.859 317.25C115.735 317.252 115.611 317.251 115.488 317.25C115.24 317.247 114.995 317.238 114.752 317.223C109.924 316.929 106.149 314.291 106.083 307.516C106.014 300.504 114.896 291.568 115.562 290.907L115.563 290.906C115.588 290.881 115.601 290.868 115.601 290.868C115.601 290.868 125.372 300.042 125.443 307.327Z" fill="#D0CDE1"/>
<path d="M115.707 318.682C134.94 318.682 150.533 317.582 150.533 316.226C150.533 314.869 134.94 313.769 115.707 313.769C96.4725 313.769 80.8803 314.869 80.8803 316.226C80.8803 317.582 96.4725 318.682 115.707 318.682Z" fill="#D0CDE1"/>
<path d="M535 162.3H304.711V279.467H535V162.3Z" fill="#3F3D56"/>
<path d="M369.811 201.753H346.489V203.695H369.811V201.753Z" fill="#0A84FF"/>
<path d="M400.906 201.753H377.585V203.695H400.906V201.753Z" fill="#0A84FF"/>
<path d="M446.092 219.717H422.771V221.66H446.092V219.717Z" fill="#0A84FF"/>
<path d="M477.674 219.717H454.352V221.66H477.674V219.717Z" fill="#0A84FF"/>
<path d="M477.674 201.753H409.166V203.695H477.674V201.753Z" fill="#0A84FF"/>
<path d="M414.997 219.717H346.489V221.66H414.997V219.717Z" fill="#0A84FF"/>
<path d="M414.997 237.682H346.489V239.624H414.997V237.682Z" fill="#0A84FF"/>
<path d="M477.674 237.682H430.059V239.624H477.674V237.682Z" fill="#0A84FF"/>
<path d="M339.934 209.952L331.729 201.753L339.934 193.553L341.575 195.194L335.012 201.753L341.575 208.311L339.934 209.952Z" fill="#0A84FF"/>
<path d="M499.777 247.824L498.135 246.183L504.699 239.624L498.135 233.065L499.777 231.425L507.982 239.624L499.777 247.824Z" fill="#0A84FF"/>
<path d="M491.139 231.034L486.28 247.056L488.502 247.729L493.361 231.707L491.139 231.034Z" fill="#0A84FF"/>
<path d="M53.871 319.994L96.8627 256.105L53.9589 326.867L54.0486 334.056C50.91 334.08 47.802 334.028 44.7244 333.9L46.8567 241.489L46.7982 240.776L46.8769 240.638L47.081 231.906L0 163.597L47.0255 225.37L47.1923 227.216L48.8029 157.396L8.1376 86.5754L48.9187 145.131L48.493 0.48143L48.494 0L48.5078 0.473486L51.2073 114.476L88.2688 68.1684L51.3286 124.298L52.1375 186.75L86.2417 125.799L52.2628 195.932L52.7131 230.658L102.31 145.754L52.8639 242.773L53.871 319.994Z" fill="#D0CDE1"/>
</g>
<defs>
<clipPath id="clip0">
<rect width="535" height="379" fill="white"/>
</clipPath>
</defs>
</svg>
