<svg width="1050" height="797" viewBox="0 0 1050 797" fill="none" xmlns="http://www.w3.org/2000/svg">
<path fill-rule="evenodd" clip-rule="evenodd" d="M501.762 2.01889C569.481 13.1391 596.533 75.6426 650.578 107.838C690.211 131.448 735.816 147.171 778.945 167.141C828.614 190.138 884.463 205.511 926.604 235.643C974.605 269.964 1042.97 305.817 1041.99 355.222C1040.97 406.963 952.209 434.203 921.763 480.78C896.698 519.125 894.101 562.362 879.633 603.593C859.714 660.358 894.995 754.571 819.481 772.262C730.097 793.201 666.714 670.198 573.225 675.375C493.655 679.782 477.901 782.79 399.975 795.495C333.742 806.294 276.944 756.197 216.412 733.55C152.113 709.493 67.6527 701.677 28.953 656.682C-10.4718 610.844 14.7646 549.838 11.7017 495.54C9.10879 449.573 -13.5497 400.583 12.1438 358.695C38.6744 315.441 109.768 298.559 153.742 263.969C186.665 238.071 215.009 209.993 239.87 179.561C272.807 139.244 278.037 86.1886 324.972 54.3703C372.186 22.3627 439.268 -8.24332 501.762 2.01889Z" fill="#0A84FF"/>
<path d="M970.749 563C1010.78 563 1043.23 558.786 1043.23 553.587C1043.23 548.389 1010.78 544.174 970.749 544.174C930.717 544.174 898.266 548.389 898.266 553.587C898.266 558.786 930.717 563 970.749 563Z" fill="#E6E6E6"/>
<path d="M974.747 520.813C974.747 520.813 978.642 534.238 981.238 537.703C983.835 541.167 985.998 546.797 984.7 547.663C983.402 548.529 980.805 558.923 984.267 559.356C987.73 559.789 995.519 548.096 995.952 544.199C996.385 540.301 998.116 526.443 998.116 526.443C998.116 526.443 1001.15 514.317 996.385 513.451C991.624 512.585 984.268 512.152 984.268 512.152L974.747 520.813Z" fill="#2F2E41"/>
<path d="M956.571 535.104C956.571 535.104 950.945 549.829 949.647 550.695C948.349 551.561 943.588 559.356 953.109 559.356C962.63 559.356 967.823 556.758 967.823 556.758L970.852 553.293C970.852 553.293 970.852 544.199 969.986 542.9C969.121 541.6 969.986 535.104 969.986 535.104H956.571Z" fill="#2F2E41"/>
<path d="M918.056 400.422C918.056 400.422 911.132 447.193 917.19 462.35C923.249 477.507 929.307 481.838 929.307 481.838L975.18 524.711C975.18 524.711 989.461 517.349 988.162 512.585C988.162 512.585 985.133 510.853 984.7 509.554C984.267 508.254 978.642 507.821 978.642 507.821C978.642 507.821 976.045 504.79 976.045 503.058C976.045 501.325 953.542 470.578 946.185 468.413C946.185 468.413 942.29 463.649 942.723 462.783C943.156 461.917 941.425 458.885 941.425 458.885L945.752 441.996L973.016 437.665C973.016 437.665 984.267 397.823 974.747 394.792C965.226 391.76 918.056 400.422 918.056 400.422Z" fill="#2F2E41"/>
<path d="M972.15 430.736L973.016 437.665C973.016 437.665 973.016 455.854 972.15 457.586C971.285 459.318 970.852 461.917 972.15 463.649C973.449 465.381 975.612 469.712 974.747 471.444C973.881 473.176 976.478 522.113 973.016 525.577C969.554 529.042 970.852 533.372 971.285 533.805C971.718 534.238 970.852 535.971 970.852 535.971C970.852 535.971 953.109 539.002 954.407 535.971C955.706 532.939 955.706 531.207 956.571 530.341C957.437 529.475 956.571 528.175 956.571 528.175C956.571 528.175 957.869 514.317 956.571 513.451C955.273 512.585 951.378 471.011 951.378 470.578C951.378 470.145 950.08 469.279 950.08 467.547C950.08 465.814 950.08 460.184 947.916 459.318C945.752 458.452 946.185 437.232 946.185 437.232L972.15 430.736Z" fill="#2F2E41"/>
<path d="M941.425 276.132C941.425 276.132 943.156 289.124 948.349 291.723C953.542 294.321 957.004 295.62 957.004 295.62L952.676 310.777L950.945 323.769H931.038L920.219 315.108L923.682 300.817L925.413 298.219C925.413 298.219 927.576 288.691 925.845 285.66C924.114 282.628 941.425 276.132 941.425 276.132Z" fill="#FFB9B9"/>
<path d="M932.769 307.746L935.799 313.376C935.799 313.376 937.962 305.581 940.992 304.281C944.021 302.982 951.378 300.817 951.378 299.085C951.378 297.352 950.945 293.022 952.676 293.022C954.407 293.022 971.285 298.218 973.881 299.951C976.478 301.683 976.911 303.415 976.911 303.415L972.15 353.218C972.15 353.218 979.074 376.603 976.911 385.697C974.747 394.792 973.016 396.091 967.823 397.39C962.63 398.689 965.659 394.359 950.512 398.689C935.366 403.02 925.845 401.721 922.383 401.721C918.921 401.721 916.757 403.453 915.892 403.886C915.026 404.319 915.459 401.721 918.488 397.823C921.518 393.926 920.219 387.43 920.219 387.43C920.219 387.43 916.757 376.17 918.921 371.839C921.085 367.509 924.114 361.879 921.518 360.147C918.921 358.414 915.459 345.422 915.459 345.422L905.938 311.643L925.412 298.219C925.412 298.219 924.547 304.281 927.576 305.581C930.606 306.88 932.769 307.746 932.769 307.746Z" fill="#575A89"/>
<path d="M908.535 311.21H905.938C905.938 311.21 901.611 318.573 901.611 323.769C901.611 328.966 903.775 358.414 903.775 358.414L916.325 371.406L919.354 361.446L920.219 339.36L908.535 311.21Z" fill="#575A89"/>
<path d="M915.459 357.115C915.459 357.115 901.178 353.218 901.611 359.281C902.044 365.344 904.207 372.706 911.132 374.438C918.056 376.17 920.219 366.643 920.219 366.643C920.219 366.643 921.085 357.981 915.459 357.115Z" fill="#575A89"/>
<path d="M969.121 377.036C969.121 377.036 968.255 396.957 963.062 399.122L975.612 402.154C975.612 402.154 981.671 381.367 980.805 380.501C979.94 379.635 969.121 377.036 969.121 377.036Z" fill="#FFB9B9"/>
<path d="M894.894 336.487L902.326 333.238C902.604 333.117 902.918 333.11 903.2 333.221C903.482 333.332 903.709 333.55 903.83 333.828L912.092 352.755C912.24 353.094 912.248 353.478 912.113 353.823C911.978 354.168 911.711 354.444 911.372 354.593L904.404 357.639C904.065 357.787 903.681 357.795 903.336 357.659C902.992 357.524 902.715 357.258 902.567 356.919L894.305 337.992C894.245 337.854 894.212 337.706 894.21 337.556C894.207 337.406 894.233 337.257 894.288 337.117C894.343 336.977 894.425 336.85 894.529 336.742C894.633 336.633 894.757 336.547 894.894 336.487Z" fill="#2F2E41"/>
<path opacity="0.1" d="M894.894 336.487L902.326 333.238C902.604 333.117 902.918 333.11 903.2 333.221C903.482 333.332 903.709 333.55 903.83 333.828L912.092 352.755C912.24 353.094 912.248 353.478 912.113 353.823C911.978 354.168 911.711 354.444 911.372 354.593L904.404 357.639C904.065 357.787 903.681 357.795 903.336 357.659C902.992 357.524 902.715 357.258 902.567 356.919L894.305 337.992C894.245 337.854 894.212 337.706 894.21 337.556C894.207 337.406 894.233 337.257 894.288 337.117C894.343 336.977 894.425 336.85 894.529 336.742C894.633 336.633 894.757 336.547 894.894 336.487Z" fill="black"/>
<path d="M895.316 337.453L901.795 334.62C902.073 334.499 902.387 334.493 902.669 334.604C902.951 334.714 903.178 334.932 903.299 335.21L911.14 353.171C911.288 353.51 911.295 353.895 911.16 354.239C911.025 354.584 910.759 354.861 910.42 355.009L904.404 357.639C904.065 357.787 903.681 357.795 903.336 357.659C902.992 357.524 902.715 357.258 902.567 356.919L894.727 338.958C894.605 338.68 894.599 338.365 894.71 338.083C894.82 337.801 895.038 337.574 895.316 337.453Z" fill="#2F2E41"/>
<path d="M901.275 345.114C902.327 344.655 902.802 343.417 902.336 342.35C901.871 341.282 900.64 340.79 899.588 341.25C898.536 341.71 898.06 342.948 898.526 344.015C898.992 345.082 900.223 345.574 901.275 345.114Z" fill="#F2F2F2"/>
<path opacity="0.1" d="M972.367 309.262L975.18 305.147C975.18 305.147 985.566 321.171 984.7 331.997C983.835 342.824 982.969 343.257 982.969 344.989C982.969 346.722 980.805 346.722 982.969 348.887C985.133 351.052 988.162 354.084 986.431 355.816C984.7 357.548 983.402 357.548 983.835 359.714C984.111 361.287 984.256 362.88 984.267 364.477C984.267 364.477 980.589 371.623 979.291 371.623C977.992 371.623 965.659 383.099 965.659 381.8C965.659 380.501 966.957 371.406 966.957 370.107C966.957 368.808 967.39 364.477 968.255 363.178C969.121 361.879 969.121 362.312 968.255 361.013C967.39 359.713 967.39 361.013 967.39 359.713C967.39 358.414 967.823 356.682 966.524 356.249C965.226 355.816 963.928 356.249 964.793 354.084C965.659 351.918 964.793 350.186 964.361 350.186C963.928 350.186 961.764 349.753 963.062 348.454C964.361 347.155 960.466 322.037 960.466 322.037C960.466 322.037 961.115 315.758 972.367 309.262Z" fill="black"/>
<path d="M969.986 299.951L977.343 303.415C977.343 303.415 987.729 319.439 986.864 330.265C985.998 341.092 985.133 341.525 985.133 343.257C985.133 344.99 982.969 344.99 985.133 347.155C987.297 349.32 990.326 352.352 988.595 354.084C986.864 355.816 985.566 355.816 985.998 357.981C986.275 359.554 986.42 361.148 986.431 362.745C986.431 362.745 982.536 383.532 981.238 383.532C979.94 383.532 967.823 381.367 967.823 380.068C967.823 378.769 969.121 369.674 969.121 368.375C969.121 367.076 969.554 362.745 970.419 361.446C971.285 360.147 971.285 360.58 970.419 359.281C969.554 357.981 969.554 359.281 969.554 357.981C969.554 356.682 969.987 354.95 968.688 354.517C967.39 354.084 966.092 354.517 966.957 352.352C967.823 350.186 966.957 348.454 966.524 348.454C966.092 348.454 963.928 348.021 965.226 346.722C966.525 345.423 962.63 320.305 962.63 320.305C962.63 320.305 958.735 306.447 969.986 299.951Z" fill="#575A89"/>
<path d="M904.32 360.208C903.917 360.315 903.49 360.28 903.11 360.108C902.73 359.936 902.42 359.639 902.234 359.266C900.245 355.287 894.857 343.616 899.88 343.257C904.514 342.926 908.641 351.968 910.326 356.239C910.434 356.511 910.482 356.801 910.469 357.093C910.455 357.384 910.38 357.67 910.249 357.93C910.117 358.19 909.932 358.42 909.705 358.603C909.478 358.786 909.215 358.919 908.933 358.993L904.32 360.208Z" fill="#FFB9B9"/>
<path d="M929.307 288.258C938.151 288.258 945.319 281.084 945.319 272.235C945.319 263.385 938.151 256.211 929.307 256.211C920.464 256.211 913.295 263.385 913.295 272.235C913.295 281.084 920.464 288.258 929.307 288.258Z" fill="#FFB9B9"/>
<path d="M923.424 263.007C921.426 263.696 919.363 264.184 917.268 264.461C915.691 264.707 913.846 264.833 912.737 263.684C911.65 262.556 911.826 260.674 912.568 259.294C913.309 257.913 914.498 256.831 915.389 255.542C916.792 253.516 917.619 250.828 919.861 249.807C920.791 249.451 921.777 249.267 922.772 249.263C928.59 248.892 934.646 248.558 940.034 250.786C942.059 251.558 943.853 252.835 945.245 254.496C946.157 255.719 946.861 257.084 947.328 258.537C948.768 262.812 949.088 267.385 948.258 271.819C947.428 276.253 945.475 280.4 942.586 283.863C940.622 282.092 941.476 278.001 938.992 277.099C938.177 276.803 937.255 277.009 936.42 276.775C933.796 276.038 933.928 271.98 931.743 270.349C931.266 270.092 930.843 269.745 930.499 269.326C930.307 268.925 930.224 268.48 930.257 268.036C930.241 266.516 930.955 262.654 929.505 261.612C928.03 260.551 924.841 262.494 923.424 263.007Z" fill="#2F2E41"/>
<path d="M914.707 525.441C914.707 525.441 913.53 500.106 889.4 503.051L914.707 525.441Z" fill="#E6E6E6"/>
<path d="M1016.45 466.111C1016.45 466.111 1017.63 440.777 1041.76 443.721L1016.45 466.111Z" fill="#E6E6E6"/>
<path d="M1015.95 546.936C1015.92 546.669 1013.06 520.102 1024.66 506.042C1028.95 500.853 1034.69 497.947 1041.72 497.405L1041.8 498.407C1035.05 498.927 1029.54 501.71 1025.44 506.68C1014.1 520.408 1016.92 546.56 1016.95 546.822L1015.95 546.936Z" fill="#E6E6E6"/>
<path d="M639.303 319.328H833.359V383.078H826.008V399.751L809.347 383.078H639.303V319.328Z" fill="#E6E6E6"/>
<path d="M827.968 325.536H644.693V376.536H827.968V325.536Z" fill="white"/>
<path d="M747.674 340.425H659.431V343.105H747.674V340.425Z" fill="#0A84FF"/>
<path d="M813.23 349.696H659.431V352.376H813.23V349.696Z" fill="#E6E6E6"/>
<path d="M813.08 358.966H659.431V361.646H813.08V358.966Z" fill="#E6E6E6"/>
<path d="M799.056 404.655H605V468.406H612.351V485.078L629.012 468.406H799.056V404.655Z" fill="#E6E6E6"/>
<path d="M793.666 410.863H610.39V461.863H793.666V410.863Z" fill="white"/>
<path d="M714.841 426.243H626.599V428.923H714.841V426.243Z" fill="#0A84FF"/>
<path d="M780.397 435.514H626.599V438.193H780.397V435.514Z" fill="#E6E6E6"/>
<path d="M780.247 444.784H626.599V447.464H780.247V444.784Z" fill="#E6E6E6"/>
<path d="M799.056 234H605V297.75H612.351V314.424L629.012 297.75H799.056V234Z" fill="#E6E6E6"/>
<path d="M793.666 240.208H610.39V291.208H793.666V240.208Z" fill="white"/>
<path d="M714.841 255.588H626.599V258.268H714.841V255.588Z" fill="#0A84FF"/>
<path d="M780.397 264.859H626.599V267.538H780.397V264.859Z" fill="#E6E6E6"/>
<path d="M780.247 274.129H626.599V276.809H780.247V274.129Z" fill="#E6E6E6"/>
<path d="M914.817 495.957H913.813V551.204H914.817V495.957Z" fill="#E6E6E6"/>
<path d="M1016.2 440.208H1015.19V551.204H1016.2V440.208Z" fill="#E6E6E6"/>
<path d="M914.707 497.75C919.258 497.75 922.947 494.059 922.947 489.505C922.947 484.951 919.258 481.26 914.707 481.26C910.156 481.26 906.467 484.951 906.467 489.505C906.467 494.059 910.156 497.75 914.707 497.75Z" fill="#0A84FF"/>
<path d="M1016.45 440.777C1021 440.777 1024.69 437.085 1024.69 432.531C1024.69 427.977 1021 424.286 1016.45 424.286C1011.9 424.286 1008.21 427.977 1008.21 432.531C1008.21 437.085 1011.9 440.777 1016.45 440.777Z" fill="#0A84FF"/>
<path d="M1041.76 506.151C1046.31 506.151 1050 502.46 1050 497.906C1050 493.352 1046.31 489.66 1041.76 489.66C1037.21 489.66 1033.52 493.352 1033.52 497.906C1033.52 502.46 1037.21 506.151 1041.76 506.151Z" fill="#E6E6E6"/>
</svg>
