<svg width="1364" height="1312" viewBox="0 0 1364 1312" fill="none" xmlns="http://www.w3.org/2000/svg">
<path fill-rule="evenodd" clip-rule="evenodd" d="M702.064 2.91031C801.5 31.9337 789.93 199.65 875.84 257.567C938.208 299.614 1040.62 223.3 1099.12 270.594C1156.07 316.637 1110.89 421.91 1153.14 481.753C1204.83 554.97 1354.61 556.024 1363.63 645.226C1372.6 733.95 1215.44 760.1 1189.93 845.544C1164.89 929.426 1252.98 1019.76 1226.87 1103.31C1202.35 1181.8 1129.16 1241.78 1055.03 1277.23C981.283 1312.5 892.208 1321.77 813.102 1301.2C735.056 1280.9 697.364 1166.38 616.787 1163.25C517.182 1159.38 445.059 1288.17 345.511 1283.03C258.671 1278.55 178.77 1211 131.134 1138.18C83.3266 1065.1 105.611 967.271 83.6473 882.726C62.1357 799.922 -13.6391 725.755 2.1455 641.668C18.3101 555.557 130.916 519.706 166.795 439.787C204.445 355.922 146.604 233.125 213.731 170.368C280.478 107.967 397.629 172.834 484.03 143.205C566.467 114.936 618.408 -21.5073 702.064 2.91031Z" fill="#0A84FF"/>
<g clip-path="url(#clip0)">
<path d="M452.102 801.262V892.422L467.33 917.272L468.489 919.163H528.577L529.792 801.262H452.102Z" fill="#E6E6E6"/>
<path opacity="0.1" d="M452.102 801.262V892.422L467.33 917.272L468.265 801.262H452.102Z" fill="black"/>
<path d="M307.04 798.83V889.991L291.812 914.841L290.653 916.731H230.565L229.35 798.83H307.04Z" fill="#E6E6E6"/>
<path opacity="0.1" d="M307.04 798.83V889.991L291.812 914.841L290.877 798.83H307.04Z" fill="black"/>
<path d="M548 797.008V802.477H221.46V794.576L251.808 778.775H521.294L548 797.008Z" fill="#E6E6E6"/>
<path opacity="0.1" d="M548 797.008V802.477H221.46V794.576L548 797.008Z" fill="black"/>
<path d="M268.196 824.355H253.628L247.559 820.101H274.872L268.196 824.355Z" fill="#3F3D56"/>
<path d="M268.196 841.98H253.628L247.559 837.726H274.872L268.196 841.98Z" fill="#3F3D56"/>
<path d="M268.196 866.897H253.628L247.559 862.643H274.872L268.196 866.897Z" fill="#3F3D56"/>
<path d="M268.196 891.814H253.628L247.559 887.56H274.872L268.196 891.814Z" fill="#3F3D56"/>
<path d="M490.946 826.786H505.514L511.583 822.532H484.27L490.946 826.786Z" fill="#3F3D56"/>
<path d="M490.946 844.411H505.514L511.583 840.157H484.27L490.946 844.411Z" fill="#3F3D56"/>
<path d="M490.946 869.328H505.514L511.583 865.074H484.27L490.946 869.328Z" fill="#3F3D56"/>
<path d="M490.946 894.245H505.514L511.583 889.991H484.27L490.946 894.245Z" fill="#3F3D56"/>
<path d="M500.866 673.357H378.234C377.625 673.357 377.021 673.477 376.459 673.711C375.896 673.944 375.385 674.286 374.954 674.717C374.523 675.149 374.182 675.66 373.949 676.224C373.716 676.787 373.596 677.391 373.596 678.001V760.717C373.596 761.326 373.716 761.93 373.949 762.494C374.182 763.057 374.523 763.569 374.954 764C375.385 764.432 375.896 764.774 376.459 765.007C377.021 765.24 377.625 765.36 378.234 765.36H424.786L423.042 776.51C423.042 776.51 413.075 781.812 420.083 781.968C427.091 782.124 460.107 781.968 460.107 781.968C460.107 781.968 466.492 781.968 456.369 776.354L454.729 765.36H500.866C501.475 765.36 502.079 765.24 502.641 765.007C503.204 764.774 503.715 764.432 504.146 764C504.577 763.569 504.918 763.057 505.151 762.494C505.384 761.93 505.504 761.326 505.504 760.717V678.001C505.504 677.391 505.384 676.787 505.151 676.224C504.918 675.66 504.577 675.149 504.146 674.717C503.715 674.286 503.204 673.944 502.641 673.711C502.079 673.477 501.475 673.357 500.866 673.357V673.357Z" fill="#3F3D56"/>
<path d="M501.066 678.269H378.034V747.194H501.066V678.269Z" fill="#F2F2F2"/>
<path d="M439.55 676.866C439.98 676.866 440.329 676.517 440.329 676.086C440.329 675.656 439.98 675.307 439.55 675.307C439.12 675.307 438.771 675.656 438.771 676.086C438.771 676.517 439.12 676.866 439.55 676.866Z" fill="#F2F2F2"/>
<path d="M439.55 762.008C441.184 762.008 442.509 760.681 442.509 759.045C442.509 757.409 441.184 756.082 439.55 756.082C437.916 756.082 436.591 757.409 436.591 759.045C436.591 760.681 437.916 762.008 439.55 762.008Z" fill="#F2F2F2"/>
<path d="M434.939 790.388V791.948H351.153V790.7L351.268 790.388L353.333 784.775H433.226L434.939 790.388Z" fill="#3F3D56"/>
<path d="M467.183 788.862C467.03 789.515 466.454 790.204 465.152 790.856C460.48 793.195 450.98 790.232 450.98 790.232C450.98 790.232 443.66 788.985 443.66 785.71C443.866 785.569 444.08 785.442 444.302 785.328C446.266 784.288 452.779 781.72 464.327 785.437C465.178 785.704 465.938 786.203 466.522 786.877C466.781 787.132 466.976 787.445 467.091 787.79C467.205 788.135 467.237 788.502 467.183 788.862Z" fill="#3F3D56"/>
<path opacity="0.1" d="M467.183 788.862C461.464 791.056 456.367 791.219 451.135 787.581C449.157 786.117 446.762 785.327 444.302 785.328C446.266 784.288 452.779 781.72 464.327 785.437C465.178 785.704 465.938 786.203 466.522 786.877C466.781 787.132 466.976 787.445 467.091 787.79C467.205 788.135 467.237 788.502 467.183 788.862Z" fill="black"/>
<path d="M460.012 787.581C461.131 787.581 462.037 787.302 462.037 786.958C462.037 786.613 461.131 786.334 460.012 786.334C458.894 786.334 457.988 786.613 457.988 786.958C457.988 787.302 458.894 787.581 460.012 787.581Z" fill="#F2F2F2"/>
<path opacity="0.1" d="M434.939 790.388V791.948H351.153V790.7L351.268 790.388H434.939Z" fill="black"/>
<path d="M244.586 614C243.736 613.93 242.884 614.121 242.145 614.546C241.418 615.044 240.96 615.917 240.493 616.729C238.706 619.871 236.287 622.607 233.389 624.763C231.279 626.312 228.595 628.242 228.956 631.097C229.147 632.04 229.495 632.943 229.985 633.77C231.932 637.706 237.246 640.748 236.723 645.239C238.658 641.996 236.07 640.392 238.005 637.149C238.926 635.605 240.527 633.862 241.917 634.832C242.383 635.156 242.689 635.739 243.174 636.024C244.331 636.704 245.562 635.404 246.586 634.483C250.118 631.308 255.141 632.14 259.536 633.129C261.611 633.596 263.89 634.209 265.117 636.195C266.73 638.805 263.585 641.625 262.79 644.577C262.725 644.828 262.722 645.092 262.781 645.345C262.84 645.598 262.96 645.833 263.129 646.029C263.298 646.226 263.513 646.379 263.754 646.475C263.995 646.57 264.256 646.606 264.514 646.579C265.833 646.448 267.395 646.342 267.473 645.762C269.132 645.821 271.165 645.633 271.876 643.903C272.094 643.219 272.209 642.506 272.217 641.788C272.478 638.882 273.71 636.231 274.526 633.465C275.342 630.699 275.697 627.458 274.32 625.005C273.828 624.19 273.22 623.45 272.516 622.81C264.701 615.238 254.426 613.989 244.586 614Z" fill="#2F2E41"/>
<path d="M238.423 650.911C238.423 650.911 240.122 665.092 233.891 666.227C227.659 667.361 239.556 686.648 239.556 686.648L267.882 690.051L261.083 667.361C261.083 667.361 256.551 665.659 259.384 654.315C262.216 642.97 238.423 650.911 238.423 650.911Z" fill="#FFB8B8"/>
<path d="M221.144 894.543L223.41 925.742H235.307L231.908 894.543H221.144Z" fill="#FFB8B8"/>
<path d="M308.387 835.55L310.087 861.643L323.117 855.971L318.018 834.415L308.387 835.55Z" fill="#FFB8B8"/>
<path d="M212.646 775.422C212.646 775.422 213.213 808.322 216.612 819.1C220.011 829.877 219.445 830.444 218.878 832.146C218.312 833.848 217.745 832.713 217.745 835.55C217.745 838.386 216.612 883.198 217.745 887.169C218.878 891.14 214.346 897.947 217.745 898.514C221.144 899.081 237.007 898.514 237.573 895.111C238.14 891.707 233.041 890.573 235.307 888.304C237.573 886.035 240.972 839.52 240.972 839.52L248.903 807.187L263.633 790.17H294.791L304.422 827.608C304.422 827.608 300.456 838.386 303.289 838.386C306.121 838.386 323.117 841.789 323.117 829.31C323.117 816.831 317.451 779.96 316.318 778.825C315.185 777.691 316.885 773.72 315.185 772.018C313.486 770.316 293.658 758.404 286.293 756.135C278.929 753.866 268.597 751.166 268.597 751.166L212.646 775.422Z" fill="#2F2E41"/>
<path d="M323.117 851.433C323.117 851.433 314.619 848.596 310.653 857.105C306.688 865.614 308.387 867.883 308.387 867.883C308.387 867.883 321.417 872.421 323.683 870.152C324.669 869.165 327.8 868.822 331.022 868.749C335.93 868.639 337.236 861.686 332.601 860.067C332.462 860.019 332.322 859.977 332.181 859.941C327.649 858.807 323.117 851.433 323.117 851.433Z" fill="#2F2E41"/>
<path d="M251.169 660.271C260.556 660.271 268.165 652.652 268.165 643.253C268.165 633.855 260.556 626.236 251.169 626.236C241.783 626.236 234.174 633.855 234.174 643.253C234.174 652.652 241.783 660.271 251.169 660.271Z" fill="#FFB8B8"/>
<path d="M229.075 673.317C229.075 673.317 256.834 678.99 263.633 669.914C270.431 660.838 273.263 695.44 273.263 695.44L276.662 731.744L271.564 751.597C271.564 751.597 244.938 773.153 236.44 774.854C227.942 776.556 214.912 777.691 214.912 777.691C214.912 777.691 218.878 714.726 218.878 713.592C218.878 712.457 229.075 673.317 229.075 673.317Z" fill="#0A84FF"/>
<path d="M237.518 662.679C237.518 662.679 231.341 659.136 229.642 662.54C227.942 665.943 212.08 674.452 210.38 674.452C208.681 674.452 213.779 721.533 211.513 727.206C209.247 732.878 198.484 774.287 204.715 777.691C210.947 781.094 206.415 774.287 212.646 782.796C218.878 791.304 249.47 791.304 251.169 787.901C252.869 784.498 237.573 758.971 240.406 735.147C243.238 711.323 247.77 678.423 243.805 673.885C239.839 669.347 237.518 662.679 237.518 662.679Z" fill="#2F2E41"/>
<path d="M257.968 666.51L258.757 663.791C258.757 663.791 282.328 671.616 283.461 676.721C284.594 681.826 284.027 717.563 280.062 720.399C276.096 723.235 270.431 727.773 274.396 734.58C278.362 741.387 282.894 748.761 286.293 749.328C289.692 749.896 295.924 753.866 294.224 757.837C292.525 761.808 272.13 754.434 272.13 754.434C272.13 754.434 258.534 744.223 259.101 728.34C259.667 712.457 257.968 666.51 257.968 666.51Z" fill="#2F2E41"/>
<path d="M277.795 733.445L264.199 758.971C264.199 758.971 244.371 779.392 255.701 781.661C267.032 783.93 273.263 762.942 273.263 762.942L287.993 741.954L277.795 733.445Z" fill="#FFB8B8"/>
<path d="M245.414 618.453C244.729 618.402 244.043 618.535 243.427 618.839C242.869 619.246 242.41 619.773 242.082 620.381C240.571 622.657 238.601 624.592 236.299 626.06C234.581 627.154 232.397 628.519 232.691 630.536C232.85 631.213 233.134 631.854 233.528 632.426C235.119 635.236 235.752 638.488 235.332 641.691L240.057 634.814C240.807 633.723 242.109 632.491 243.242 633.176C243.621 633.406 243.87 633.817 244.265 634.019C245.206 634.499 246.209 633.581 247.042 632.93C249.918 630.686 254.006 631.274 257.584 631.973C259.273 632.303 261.129 632.736 262.127 634.14C263.786 636.472 262.054 639.842 263.022 642.536C263.293 642.346 263.523 642.104 263.699 641.823C263.875 641.542 263.993 641.229 264.045 640.902C265.396 640.944 267.051 640.811 267.63 639.588C267.806 639.109 267.899 638.603 267.907 638.093C268.119 636.039 269.122 634.165 269.786 632.21C270.451 630.255 270.739 627.964 269.618 626.231C269.208 625.644 268.713 625.121 268.15 624.679C261.788 619.327 253.424 618.445 245.414 618.453Z" fill="#2F2E41"/>
<path d="M277.795 674.452L283.074 675.855C283.074 675.855 295.357 707.352 292.525 728.907C289.692 750.463 287.993 745.925 287.993 745.925C287.993 745.925 283.461 735.714 273.263 737.983L277.795 674.452Z" fill="#2F2E41"/>
<path d="M221.929 921.619C220.563 923.478 220.837 926.135 219.627 928.099C218.578 929.802 216.601 930.694 215.289 932.203C214.87 932.704 214.497 933.242 214.174 933.809C212.956 935.851 211.967 938.467 213.166 940.519C214.13 942.17 216.157 942.815 218.016 943.255C220.365 943.811 222.806 944.256 225.183 943.831C227.56 943.406 229.882 941.949 230.73 939.686C230.896 939.117 231.094 938.557 231.323 938.01C232.611 935.471 236.651 935.443 237.97 932.92C238.892 931.153 238.044 929.019 237.196 927.215L234.607 921.708C233.748 919.88 230.265 920.931 228.449 920.493C226.081 919.922 223.633 919.292 221.929 921.619Z" fill="#2F2E41"/>
<path d="M203.016 744.79L226.809 781.661C226.809 781.661 241.539 800.38 246.071 791.872C250.603 783.363 230.208 769.182 230.208 769.182L214.912 740.82L203.016 744.79Z" fill="#FFB8B8"/>
<path d="M214.912 675.586L210.38 674.452C210.38 674.452 201.316 677.288 199.05 689.2C196.784 701.112 198.484 748.761 201.316 749.328C204.149 749.896 215.306 741.032 217.092 742.911C218.878 744.79 213.213 735.147 214.912 730.042C216.612 724.937 214.912 675.586 214.912 675.586Z" fill="#2F2E41"/>
<path d="M427.905 700.906H413.263V704.436H427.905V700.906Z" fill="#0A84FF"/>
<path d="M478.61 700.906H473.458V704.436H478.61V700.906Z" fill="#0A84FF"/>
<path d="M488.914 700.906H483.762V704.436H488.914V700.906Z" fill="#0A84FF"/>
<path d="M468.035 700.906H433.057V704.436H468.035V700.906Z" fill="#0A84FF"/>
<path d="M409.467 723.713H394.825V727.242H409.467V723.713Z" fill="#0A84FF"/>
<path d="M460.172 723.713H455.02V727.242H460.172V723.713Z" fill="#0A84FF"/>
<path d="M470.476 723.713H465.324V727.242H470.476V723.713Z" fill="#0A84FF"/>
<path d="M449.597 723.713H414.619V727.242H449.597V723.713Z" fill="#0A84FF"/>
<path d="M469.934 708.78H455.291V712.309H469.934V708.78Z" fill="#0A84FF"/>
<path d="M489.728 708.78H475.085V712.309H489.728V708.78Z" fill="#0A84FF"/>
<path d="M399.977 708.78H394.825V712.309H399.977V708.78Z" fill="#0A84FF"/>
<path d="M410.28 708.78H405.128V712.309H410.28V708.78Z" fill="#0A84FF"/>
<path d="M450.411 708.78H415.432V712.309H450.411V708.78Z" fill="#0A84FF"/>
<path d="M439.565 716.382H424.922V719.912H439.565V716.382Z" fill="#0A84FF"/>
<path d="M419.771 716.382H405.128V719.912H419.771V716.382Z" fill="#0A84FF"/>
<path d="M399.977 716.382H394.825V719.912H399.977V716.382Z" fill="#0A84FF"/>
<path d="M489.728 716.382H484.576V719.912H489.728V716.382Z" fill="#0A84FF"/>
<path d="M479.424 716.382H444.445V719.912H479.424V716.382Z" fill="#0A84FF"/>
</g>
<defs>
<clipPath id="clip0">
<rect width="350" height="330" fill="white" transform="translate(198 614)"/>
</clipPath>
</defs>
</svg>
