<svg width="350" height="330" viewBox="0 0 350 330" fill="none" xmlns="http://www.w3.org/2000/svg">
<g clip-path="url(#clip0)">
<path d="M254.102 187.262V278.422L269.33 303.272L270.489 305.163H330.577L331.792 187.262H254.102Z" fill="#E6E6E6"/>
<path opacity="0.1" d="M254.102 187.262V278.422L269.33 303.272L270.265 187.262H254.102Z" fill="black"/>
<path d="M109.04 184.83V275.991L93.8116 300.841L92.6526 302.731H32.5645L31.3504 184.83H109.04Z" fill="#E6E6E6"/>
<path opacity="0.1" d="M109.04 184.83V275.991L93.8116 300.841L92.8771 184.83H109.04Z" fill="black"/>
<path d="M350 183.008V188.477H23.46V180.576L53.8075 164.775H323.294L350 183.008Z" fill="#E6E6E6"/>
<path opacity="0.1" d="M350 183.008V188.477H23.46V180.576L350 183.008Z" fill="black"/>
<path d="M70.1956 210.355H55.6284L49.5589 206.101H76.8719L70.1956 210.355Z" fill="#3F3D56"/>
<path d="M70.1956 227.98H55.6284L49.5589 223.726H76.8719L70.1956 227.98Z" fill="#3F3D56"/>
<path d="M70.1956 252.897H55.6284L49.5589 248.643H76.8719L70.1956 252.897Z" fill="#3F3D56"/>
<path d="M70.1956 277.814H55.6284L49.5589 273.56H76.8719L70.1956 277.814Z" fill="#3F3D56"/>
<path d="M292.946 212.786H307.514L313.583 208.532H286.27L292.946 212.786Z" fill="#3F3D56"/>
<path d="M292.946 230.411H307.514L313.583 226.157H286.27L292.946 230.411Z" fill="#3F3D56"/>
<path d="M292.946 255.328H307.514L313.583 251.074H286.27L292.946 255.328Z" fill="#3F3D56"/>
<path d="M292.946 280.245H307.514L313.583 275.991H286.27L292.946 280.245Z" fill="#3F3D56"/>
<path d="M302.866 59.3573H180.234C179.625 59.3573 179.021 59.4773 178.459 59.7107C177.896 59.944 177.385 60.2861 176.954 60.7173C176.523 61.1485 176.182 61.6605 175.949 62.2239C175.716 62.7874 175.596 63.3913 175.596 64.0011V146.717C175.596 147.326 175.716 147.93 175.949 148.494C176.182 149.057 176.523 149.569 176.954 150C177.385 150.432 177.896 150.774 178.459 151.007C179.021 151.24 179.625 151.36 180.234 151.36H226.786L225.042 162.51C225.042 162.51 215.075 167.812 222.083 167.968C229.091 168.124 262.107 167.968 262.107 167.968C262.107 167.968 268.492 167.968 258.369 162.354L256.729 151.36H302.866C303.475 151.36 304.079 151.24 304.641 151.007C305.204 150.774 305.715 150.432 306.146 150C306.577 149.569 306.918 149.057 307.151 148.494C307.384 147.93 307.504 147.326 307.504 146.717V64.0011C307.504 63.3913 307.384 62.7874 307.151 62.2239C306.918 61.6605 306.577 61.1485 306.146 60.7173C305.715 60.2861 305.204 59.944 304.641 59.7107C304.079 59.4773 303.475 59.3573 302.866 59.3573Z" fill="#3F3D56"/>
<path d="M303.066 64.2693H180.034V133.194H303.066V64.2693Z" fill="#F2F2F2"/>
<path d="M241.55 62.8659C241.98 62.8659 242.329 62.5168 242.329 62.0862C242.329 61.6556 241.98 61.3065 241.55 61.3065C241.12 61.3065 240.771 61.6556 240.771 62.0862C240.771 62.5168 241.12 62.8659 241.55 62.8659Z" fill="#F2F2F2"/>
<path d="M241.55 148.008C243.184 148.008 244.509 146.681 244.509 145.045C244.509 143.409 243.184 142.082 241.55 142.082C239.916 142.082 238.591 143.409 238.591 145.045C238.591 146.681 239.916 148.008 241.55 148.008Z" fill="#F2F2F2"/>
<path d="M236.939 176.388V177.948H153.153V176.7L153.268 176.388L155.333 170.775H235.226L236.939 176.388Z" fill="#3F3D56"/>
<path d="M269.183 174.862C269.03 175.515 268.454 176.204 267.152 176.856C262.48 179.195 252.98 176.232 252.98 176.232C252.98 176.232 245.66 174.985 245.66 171.71C245.866 171.569 246.08 171.442 246.302 171.328C248.266 170.288 254.779 167.72 266.327 171.437C267.178 171.704 267.938 172.203 268.522 172.877C268.781 173.132 268.976 173.445 269.091 173.79C269.205 174.135 269.237 174.502 269.183 174.862Z" fill="#3F3D56"/>
<path opacity="0.1" d="M269.183 174.862C263.464 177.056 258.367 177.219 253.135 173.581C251.157 172.117 248.762 171.327 246.302 171.328C248.266 170.288 254.779 167.72 266.327 171.437C267.178 171.704 267.938 172.203 268.522 172.877C268.781 173.132 268.976 173.445 269.091 173.79C269.205 174.135 269.237 174.502 269.183 174.862Z" fill="black"/>
<path d="M262.012 173.581C263.131 173.581 264.037 173.302 264.037 172.958C264.037 172.613 263.131 172.334 262.012 172.334C260.894 172.334 259.988 172.613 259.988 172.958C259.988 173.302 260.894 173.581 262.012 173.581Z" fill="#F2F2F2"/>
<path opacity="0.1" d="M236.939 176.388V177.948H153.153V176.7L153.268 176.388H236.939Z" fill="black"/>
<path d="M46.5862 7.0164e-05C45.7358 -0.0698362 44.8843 0.120622 44.1446 0.546208C43.4182 1.0443 42.9603 1.91691 42.493 2.72892C40.7062 5.87064 38.2873 8.60656 35.3894 10.7634C33.2787 12.3117 30.5952 14.2422 30.9563 17.0968C31.1468 18.0395 31.4946 18.9434 31.9852 19.7703C33.9323 23.7061 39.2459 26.7476 38.7232 31.2386C40.6578 27.9957 38.0702 26.3922 40.0048 23.1494C40.9261 21.605 42.5265 19.8618 43.9175 20.8316C44.3832 21.1563 44.689 21.7388 45.174 22.0237C46.3311 22.7036 47.5621 21.4038 48.5864 20.4831C52.1184 17.3084 57.1411 18.1401 61.5363 19.1293C63.6113 19.5963 65.8904 20.2089 67.117 22.1947C68.7297 24.8055 65.5848 27.6252 64.7901 30.5769C64.7253 30.8285 64.7222 31.092 64.7812 31.3449C64.8402 31.5979 64.9595 31.8328 65.129 32.0295C65.2984 32.2262 65.5129 32.3789 65.7541 32.4746C65.9953 32.5702 66.2561 32.6059 66.5141 32.5786C67.8329 32.4484 69.3951 32.3416 69.4732 31.7622C71.1324 31.8213 73.1655 31.6331 73.8764 29.9032C74.0937 29.2187 74.2086 28.5058 74.2172 27.7876C74.4782 24.8817 75.7099 22.2305 76.5259 19.4647C77.3419 16.699 77.6967 13.4576 76.3197 11.0055C75.8282 10.1896 75.2204 9.44991 74.5155 8.80988C66.7009 1.2376 56.4264 -0.0111699 46.5862 7.0164e-05Z" fill="#2F2E41"/>
<path d="M40.4228 36.9111C40.4228 36.9111 42.1223 51.0923 35.8907 52.2267C29.659 53.3612 41.5558 72.6476 41.5558 72.6476L69.8815 76.0511L63.0833 53.3612C63.0833 53.3612 58.5512 51.6595 61.3838 40.3146C64.2164 28.9697 40.4228 36.9111 40.4228 36.9111Z" fill="#FFB8B8"/>
<path d="M23.1441 280.543L25.4104 311.742H37.3067L33.9081 280.543H23.1441Z" fill="#FFB8B8"/>
<path d="M110.387 221.55L112.087 247.643L125.117 241.971L120.018 220.415L110.387 221.55Z" fill="#FFB8B8"/>
<path d="M14.6464 161.422C14.6464 161.422 15.2129 194.322 18.612 205.1C22.0111 215.877 21.4446 216.444 20.8781 218.146C20.3116 219.848 19.7451 218.713 19.7451 221.55C19.7451 224.386 18.612 269.198 19.7451 273.169C20.8781 277.14 16.346 283.947 19.7451 284.514C23.1441 285.081 39.0065 284.514 39.573 281.111C40.1395 277.707 35.0409 276.573 37.307 274.304C39.573 272.035 42.9721 225.52 42.9721 225.52L50.9033 193.187L65.6327 176.17H96.7909L106.422 213.608C106.422 213.608 102.456 224.386 105.289 224.386C108.121 224.386 125.117 227.789 125.117 215.31C125.117 202.831 119.451 165.96 118.318 164.825C117.185 163.691 118.885 159.72 117.185 158.018C115.486 156.316 95.6579 144.404 88.2932 142.135C80.9285 139.866 70.5971 137.166 70.5971 137.166L14.6464 161.422Z" fill="#2F2E41"/>
<path d="M125.117 237.433C125.117 237.433 116.619 234.596 112.653 243.105C108.688 251.614 110.387 253.883 110.387 253.883C110.387 253.883 123.417 258.421 125.683 256.152C126.669 255.165 129.8 254.822 133.022 254.749C137.93 254.639 139.236 247.686 134.601 246.067C134.462 246.019 134.322 245.977 134.181 245.941C129.649 244.807 125.117 237.433 125.117 237.433Z" fill="#2F2E41"/>
<path d="M53.1693 46.2706C62.5556 46.2706 70.1648 38.6517 70.1648 29.2533C70.1648 19.8548 62.5556 12.2359 53.1693 12.2359C43.783 12.2359 36.1739 19.8548 36.1739 29.2533C36.1739 38.6517 43.783 46.2706 53.1693 46.2706Z" fill="#FFB8B8"/>
<path d="M31.0753 59.3173C31.0753 59.3173 58.8345 64.9898 65.6326 55.9138C72.4308 46.8379 75.2634 81.4399 75.2634 81.4399L78.6625 117.744L73.5638 137.597C73.5638 137.597 46.9377 159.153 38.44 160.854C29.9423 162.556 16.9125 163.691 16.9125 163.691C16.9125 163.691 20.8781 100.726 20.8781 99.5918C20.8781 98.4573 31.0753 59.3173 31.0753 59.3173Z" fill="#0A84FF"/>
<path d="M39.5175 48.6788C39.5175 48.6788 33.3414 45.1361 31.6418 48.5396C29.9423 51.9431 14.0799 60.4518 12.3804 60.4518C10.6808 60.4518 15.7794 107.533 13.5134 113.206C11.2473 118.878 0.483569 160.287 6.71522 163.691C12.9469 167.094 8.41476 160.287 14.6464 168.796C20.8781 177.305 51.4698 177.304 53.1693 173.901C54.8689 170.498 39.573 144.971 42.4056 121.147C45.2382 97.3228 49.7703 64.4225 45.8047 59.8845C41.8391 55.3466 39.5175 48.6788 39.5175 48.6788Z" fill="#2F2E41"/>
<path d="M59.9675 52.5104L60.7566 49.7913C60.7566 49.7913 84.3276 57.6156 85.4607 62.7208C86.5937 67.826 86.0272 103.563 82.0616 106.399C78.096 109.235 72.4308 113.773 76.3964 120.58C80.362 127.387 84.8941 134.761 88.2932 135.328C91.6923 135.896 97.924 139.866 96.2244 143.837C94.5249 147.808 74.1304 140.434 74.1304 140.434C74.1304 140.434 60.534 130.223 61.1006 114.34C61.6671 98.4573 59.9675 52.5104 59.9675 52.5104Z" fill="#2F2E41"/>
<path d="M79.7955 119.445L66.1992 144.971C66.1992 144.971 46.3712 165.392 57.7015 167.661C69.0318 169.93 75.2634 148.942 75.2634 148.942L89.9928 127.954L79.7955 119.445Z" fill="#FFB8B8"/>
<path d="M47.4141 4.45264C46.7291 4.40181 46.0429 4.53507 45.4265 4.83865C44.8692 5.2462 44.4099 5.77328 44.0821 6.38137C42.571 8.65726 40.6013 10.5916 38.2995 12.0601C36.5812 13.1544 34.3968 14.5188 34.6907 16.5365C34.8503 17.213 35.1343 17.8538 35.5283 18.4261C37.1188 21.236 37.752 24.4882 37.332 27.6905L42.0566 20.8144C42.8065 19.7229 44.1094 18.4908 45.2417 19.1762C45.6208 19.4058 45.8698 19.8174 46.2645 20.0188C47.2065 20.4993 48.2086 19.5807 49.0424 18.9299C51.9175 16.6861 56.0063 17.2739 59.5842 17.973C61.2733 18.3031 63.1286 18.7361 64.1271 20.1396C65.7864 22.472 64.0537 25.842 65.0222 28.5365C65.2933 28.3464 65.5235 28.1038 65.6992 27.823C65.8749 27.5422 65.9925 27.229 66.0451 26.9018C67.3958 26.9437 69.0508 26.8107 69.6295 25.5879C69.8055 25.1087 69.8993 24.6032 69.907 24.0927C70.1194 22.0388 71.1221 20.165 71.7863 18.2101C72.4506 16.2553 72.7394 13.9643 71.6184 12.2312C71.2083 11.6439 70.7134 11.1209 70.1498 10.6793C63.7883 5.32731 55.4245 4.4447 47.4141 4.45264Z" fill="#2F2E41"/>
<path d="M79.7955 60.4518L85.0737 61.8546C85.0737 61.8546 97.3574 93.3521 94.5248 114.907C91.6923 136.463 89.9927 131.925 89.9927 131.925C89.9927 131.925 85.4606 121.714 75.2634 123.983L79.7955 60.4518Z" fill="#2F2E41"/>
<path d="M23.929 307.619C22.5629 309.478 22.8368 312.135 21.6266 314.099C20.5777 315.802 18.6008 316.694 17.2888 318.203C16.8701 318.704 16.4969 319.242 16.1735 319.809C14.9564 321.851 13.9672 324.467 15.1658 326.519C16.1301 328.17 18.157 328.815 20.0158 329.255C22.3653 329.811 24.8064 330.256 27.183 329.831C29.5596 329.406 31.8823 327.949 32.7297 325.686C32.8963 325.117 33.0943 324.557 33.3228 324.01C34.6109 321.471 38.6514 321.443 39.9697 318.92C40.8923 317.153 40.0442 315.019 39.1965 313.215L36.6073 307.708C35.7481 305.88 32.2649 306.931 30.449 306.493C28.0808 305.922 25.6327 305.292 23.929 307.619Z" fill="#2F2E41"/>
<path d="M5.01568 130.79L28.8093 167.661C28.8093 167.661 43.5386 186.38 48.0707 177.872C52.6028 169.363 32.2083 155.182 32.2083 155.182L16.9125 126.82L5.01568 130.79Z" fill="#FFB8B8"/>
<path d="M16.9125 61.5863L12.3804 60.4518C12.3804 60.4518 3.31613 63.288 1.05008 75.2002C-1.21597 87.1124 0.483565 134.761 3.31613 135.328C6.1487 135.896 17.3062 127.032 19.0921 128.911C20.8781 130.79 15.2129 121.147 16.9124 116.042C18.612 110.937 16.9125 61.5863 16.9125 61.5863Z" fill="#2F2E41"/>
<path d="M229.905 86.9064H215.263V90.4359H229.905V86.9064Z" fill="#0A84FF"/>
<path d="M280.61 86.9064H275.458V90.4359H280.61V86.9064Z" fill="#0A84FF"/>
<path d="M290.914 86.9064H285.762V90.4359H290.914V86.9064Z" fill="#0A84FF"/>
<path d="M270.035 86.9064H235.057V90.4359H270.035V86.9064Z" fill="#0A84FF"/>
<path d="M211.467 109.713H196.825V113.242H211.467V109.713Z" fill="#0A84FF"/>
<path d="M262.172 109.713H257.02V113.242H262.172V109.713Z" fill="#0A84FF"/>
<path d="M272.476 109.713H267.324V113.242H272.476V109.713Z" fill="#0A84FF"/>
<path d="M251.597 109.713H216.619V113.242H251.597V109.713Z" fill="#0A84FF"/>
<path d="M271.934 94.7799H257.291V98.3095H271.934V94.7799Z" fill="#0A84FF"/>
<path d="M291.728 94.7799H277.085V98.3095H291.728V94.7799Z" fill="#0A84FF"/>
<path d="M201.977 94.7799H196.825V98.3095H201.977V94.7799Z" fill="#0A84FF"/>
<path d="M212.28 94.7799H207.128V98.3095H212.28V94.7799Z" fill="#0A84FF"/>
<path d="M252.411 94.7799H217.432V98.3095H252.411V94.7799Z" fill="#0A84FF"/>
<path d="M241.565 102.382H226.922V105.912H241.565V102.382Z" fill="#0A84FF"/>
<path d="M221.771 102.382H207.128V105.912H221.771V102.382Z" fill="#0A84FF"/>
<path d="M201.977 102.382H196.825V105.912H201.977V102.382Z" fill="#0A84FF"/>
<path d="M291.728 102.382H286.576V105.912H291.728V102.382Z" fill="#0A84FF"/>
<path d="M281.424 102.382H246.445V105.912H281.424V102.382Z" fill="#0A84FF"/>
</g>
<defs>
<clipPath id="clip0">
<rect width="350" height="330" fill="white"/>
</clipPath>
</defs>
</svg>
